<?xml version="1.0" encoding="UTF-8" standalone="no"?><!DOCTYPE svg PUBLIC "-//W3C//DTD SVG 1.1//EN" "http://www.w3.org/Graphics/SVG/1.1/DTD/svg11.dtd"><svg width="100%" height="100%" viewBox="0 0 125 125" version="1.1" xmlns="http://www.w3.org/2000/svg" xmlns:xlink="http://www.w3.org/1999/xlink" xml:space="preserve" xmlns:serif="http://www.serif.com/" style="fill-rule:evenodd;clip-rule:evenodd;stroke-linejoin:round;stroke-miterlimit:2;"><g><path d="M62.5,0c-16.975,0 -19.104,0.071 -25.767,0.375c-6.654,0.304 -11.196,1.363 -15.175,2.908c-4.108,1.596 -7.596,3.734 -11.066,7.209c-3.475,3.475 -5.613,6.958 -7.213,11.066c-1.542,3.98 -2.6,8.521 -2.904,15.175c-0.304,6.663 -0.375,8.792 -0.375,25.767c0,16.975 0.071,19.104 0.375,25.767c0.304,6.654 1.362,11.196 2.904,15.175c1.6,4.108 3.738,7.591 7.213,11.066c3.47,3.475 6.958,5.613 11.066,7.213c3.979,1.542 8.521,2.6 15.175,2.904c6.663,0.304 8.792,0.375 25.767,0.375c16.975,0 19.104,-0.071 25.767,-0.375c6.654,-0.304 11.196,-1.362 15.175,-2.904c4.108,-1.6 7.591,-3.738 11.066,-7.213c3.475,-3.475 5.613,-6.958 7.213,-11.066c1.542,-3.979 2.6,-8.521 2.904,-15.175c0.304,-6.663 0.375,-8.792 0.375,-25.767c0,-16.975 -0.071,-19.104 -0.375,-25.767c-0.304,-6.654 -1.362,-11.196 -2.904,-15.175c-1.6,-4.108 -3.738,-7.591 -7.213,-11.066c-3.475,-3.475 -6.958,-5.613 -11.066,-7.209c-3.979,-1.546 -8.521,-2.604 -15.175,-2.908c-6.663,-0.304 -8.792,-0.375 -25.767,-0.375Zm0,11.262c16.688,0 18.667,0.063 25.254,0.363c6.096,0.279 9.404,1.296 11.609,2.154c2.916,1.133 4.995,2.488 7.183,4.675c2.187,2.188 3.542,4.267 4.675,7.184c0.858,2.204 1.875,5.512 2.154,11.608c0.3,6.587 0.363,8.567 0.363,25.254c0,16.688 -0.063,18.667 -0.363,25.254c-0.279,6.096 -1.296,9.404 -2.154,11.609c-1.133,2.916 -2.488,4.995 -4.675,7.183c-2.188,2.187 -4.267,3.542 -7.183,4.675c-2.205,0.858 -5.513,1.875 -11.609,2.154c-6.587,0.3 -8.567,0.363 -25.254,0.363c-16.687,0 -18.667,-0.063 -25.254,-0.363c-6.096,-0.279 -9.404,-1.296 -11.608,-2.154c-2.917,-1.133 -4.996,-2.488 -7.184,-4.675c-2.187,-2.188 -3.541,-4.267 -4.675,-7.183c-0.858,-2.205 -1.875,-5.513 -2.154,-11.609c-0.3,-6.587 -0.362,-8.567 -0.362,-25.254c0,-16.687 0.062,-18.667 0.362,-25.254c0.279,-6.096 1.296,-9.404 2.154,-11.608c1.134,-2.917 2.488,-4.996 4.675,-7.184c2.188,-2.187 4.267,-3.541 7.184,-4.675c2.204,-0.858 5.512,-1.875 11.608,-2.154c6.587,-0.3 8.567,-0.362 25.254,-0.362Z" style="fill:#0f1422;fill-rule:nonzero;"/><path d="M62.5,83.333c-11.504,0 -20.833,-9.329 -20.833,-20.833c0,-11.504 9.329,-20.833 20.833,-20.833c11.504,0 20.833,9.329 20.833,20.833c0,11.504 -9.329,20.833 -20.833,20.833Zm0,-52.929c-17.725,0 -32.096,14.371 -32.096,32.096c0,17.725 14.371,32.096 32.096,32.096c17.725,0 32.096,-14.371 32.096,-32.096c0,-17.725 -14.371,-32.096 -32.096,-32.096Z" style="fill:#0f1422;fill-rule:nonzero;"/><path d="M103.363,29.138c-0.001,4.141 -3.359,7.5 -7.501,7.5c-4.141,0 -7.499,-3.359 -7.499,-7.5c-0.001,-4.142 3.358,-7.5 7.499,-7.5c4.142,0 7.501,3.358 7.501,7.5Z" style="fill:#0f1422;fill-rule:nonzero;"/></g></svg>