<?xml version="1.0" encoding="UTF-8" standalone="no"?><!DOCTYPE svg PUBLIC "-//W3C//DTD SVG 1.1//EN" "http://www.w3.org/Graphics/SVG/1.1/DTD/svg11.dtd"><svg width="100%" height="100%" viewBox="0 0 30 30" version="1.1" xmlns="http://www.w3.org/2000/svg" xmlns:xlink="http://www.w3.org/1999/xlink" xml:space="preserve" xmlns:serif="http://www.serif.com/" style="fill-rule:evenodd;clip-rule:evenodd;stroke-linejoin:round;stroke-miterlimit:2;"><g><path d="M15,0c-4.074,0 -4.585,0.017 -6.184,0.09c-1.597,0.073 -2.687,0.327 -3.642,0.698c-0.986,0.383 -1.823,0.896 -2.656,1.73c-0.834,0.834 -1.347,1.67 -1.731,2.656c-0.37,0.955 -0.624,2.045 -0.697,3.642c-0.073,1.599 -0.09,2.11 -0.09,6.184c0,4.074 0.017,4.585 0.09,6.184c0.073,1.597 0.327,2.687 0.697,3.642c0.384,0.986 0.897,1.822 1.731,2.656c0.833,0.834 1.67,1.347 2.656,1.731c0.955,0.37 2.045,0.624 3.642,0.697c1.599,0.073 2.11,0.09 6.184,0.09c4.074,0 4.585,-0.017 6.184,-0.09c1.597,-0.073 2.687,-0.327 3.642,-0.697c0.986,-0.384 1.822,-0.897 2.656,-1.731c0.834,-0.834 1.347,-1.67 1.731,-2.656c0.37,-0.955 0.624,-2.045 0.697,-3.642c0.073,-1.599 0.09,-2.11 0.09,-6.184c0,-4.074 -0.017,-4.585 -0.09,-6.184c-0.073,-1.597 -0.327,-2.687 -0.697,-3.642c-0.384,-0.986 -0.897,-1.822 -1.731,-2.656c-0.834,-0.834 -1.67,-1.347 -2.656,-1.73c-0.955,-0.371 -2.045,-0.625 -3.642,-0.698c-1.599,-0.073 -2.11,-0.09 -6.184,-0.09Zm0,2.703c4.005,0 4.48,0.015 6.061,0.087c1.463,0.067 2.257,0.311 2.786,0.517c0.7,0.272 1.199,0.597 1.724,1.122c0.525,0.525 0.85,1.024 1.122,1.724c0.206,0.529 0.45,1.323 0.517,2.786c0.072,1.581 0.087,2.056 0.087,6.061c0,4.005 -0.015,4.48 -0.087,6.061c-0.067,1.463 -0.311,2.257 -0.517,2.786c-0.272,0.7 -0.597,1.199 -1.122,1.724c-0.525,0.525 -1.024,0.85 -1.724,1.122c-0.529,0.206 -1.323,0.45 -2.786,0.517c-1.581,0.072 -2.056,0.087 -6.061,0.087c-4.005,0 -4.48,-0.015 -6.061,-0.087c-1.463,-0.067 -2.257,-0.311 -2.786,-0.517c-0.7,-0.272 -1.199,-0.597 -1.724,-1.122c-0.525,-0.525 -0.85,-1.024 -1.122,-1.724c-0.206,-0.529 -0.45,-1.323 -0.517,-2.786c-0.072,-1.581 -0.087,-2.056 -0.087,-6.061c0,-4.005 0.015,-4.48 0.087,-6.061c0.067,-1.463 0.311,-2.257 0.517,-2.786c0.272,-0.7 0.597,-1.199 1.122,-1.724c0.525,-0.525 1.024,-0.85 1.724,-1.122c0.529,-0.206 1.323,-0.45 2.786,-0.517c1.581,-0.072 2.056,-0.087 6.061,-0.087Z" style="fill:#fad7c3;fill-rule:nonzero;"/><path d="M15,20c-2.761,0 -5,-2.239 -5,-5c0,-2.761 2.239,-5 5,-5c2.761,0 5,2.239 5,5c0,2.761 -2.239,5 -5,5Zm0,-12.703c-4.254,0 -7.703,3.449 -7.703,7.703c0,4.254 3.449,7.703 7.703,7.703c4.254,0 7.703,-3.449 7.703,-7.703c0,-4.254 -3.449,-7.703 -7.703,-7.703Z" style="fill:#fad7c3;fill-rule:nonzero;"/><path d="M24.807,6.993c0,0.994 -0.806,1.8 -1.8,1.8c-0.994,0 -1.8,-0.806 -1.8,-1.8c0,-0.994 0.806,-1.8 1.8,-1.8c0.994,0 1.8,0.806 1.8,1.8Z" style="fill:#fad7c3;fill-rule:nonzero;"/></g></svg>