<?xml version="1.0" encoding="UTF-8" standalone="no"?><!DOCTYPE svg PUBLIC "-//W3C//DTD SVG 1.1//EN" "http://www.w3.org/Graphics/SVG/1.1/DTD/svg11.dtd"><svg width="100%" height="100%" viewBox="0 0 125 125" version="1.1" xmlns="http://www.w3.org/2000/svg" xmlns:xlink="http://www.w3.org/1999/xlink" xml:space="preserve" xmlns:serif="http://www.serif.com/" style="fill-rule:evenodd;clip-rule:evenodd;stroke-linejoin:round;stroke-miterlimit:2;"><path d="M116.662,0l-108.328,0c-4.601,0 -8.334,3.855 -8.334,8.456l0,108.377c0,4.782 3.552,8.167 8.334,8.167l108.328,0c4.539,0 8.338,-3.627 8.338,-8.167l0,-108.377c0,-4.455 -3.884,-8.456 -8.338,-8.456Zm-74.995,98.958l-15.625,0l0,-57.291l15.625,0l0,57.291Zm-7.813,-63.896c-5.031,0.001 -9.114,-4.114 -9.114,-9.187c0,-5.073 4.083,-9.188 9.114,-9.188c5.031,0 9.115,4.115 9.115,9.188c0,5.073 -4.078,9.188 -9.115,9.188Zm70.313,63.895l-15.625,0l0,-29.187c0,-17.542 -20.834,-16.214 -20.834,0l0,29.187l-15.625,0l0,-57.291l15.625,0l0,9.192c7.271,-13.468 36.459,-14.463 36.459,12.896l0,35.203Z" style="fill:#fad7c3;fill-rule:nonzero;"/></svg>