<?xml version="1.0" encoding="UTF-8" standalone="no"?><!DOCTYPE svg PUBLIC "-//W3C//DTD SVG 1.1//EN" "http://www.w3.org/Graphics/SVG/1.1/DTD/svg11.dtd"><svg width="100%" height="100%" viewBox="0 0 125 125" version="1.1" xmlns="http://www.w3.org/2000/svg" xmlns:xlink="http://www.w3.org/1999/xlink" xml:space="preserve" xmlns:serif="http://www.serif.com/" style="fill-rule:evenodd;clip-rule:evenodd;stroke-linejoin:round;stroke-miterlimit:2;"><path d="M125,12.5c0,-6.899 -5.601,-12.5 -12.5,-12.5l-100,0c-6.899,0 -12.5,5.601 -12.5,12.5l0,100c0,6.899 5.601,12.5 12.5,12.5l100,0c6.899,0 12.5,-5.601 12.5,-12.5l0,-100Zm-55.161,30.985c1.368,-3.283 3.584,-7.966 7.175,-14.457c8.993,-16.255 24.919,-13.076 24.919,-13.076c3.609,0 6.539,2.93 6.539,6.538c0,3.609 -2.93,6.538 -6.539,6.538c-3.594,0 -6.515,-2.906 -6.538,-6.496c-0.107,-1.237 -0.412,-3.322 -2.695,-3.321c-4.359,0.002 -6.054,3.77 -10.192,11.628c-2.848,5.409 -5.413,12.242 -6.801,16.176l9.989,0l-1.393,5.044l-10.32,0l-8.954,26.39c-0.226,0.84 -0.62,2.092 -1.307,3.852l-0.187,0.553l-0.028,-0.01c-1.325,3.31 -3.61,8.252 -7.546,15.367c-8.871,16.034 -24.487,13.159 -24.911,13.078l-0.008,0c-3.609,0 -6.539,-2.929 -6.539,-6.538c0,-3.609 2.93,-6.538 6.539,-6.538c3.594,0 6.515,2.906 6.538,6.494c0.107,1.237 0.412,3.322 2.695,3.321c4.359,-0.002 6.351,-3.82 10.489,-11.679c2.714,-5.155 5.091,-11.625 6.457,-15.638l-0.04,-0.013l1.267,-3.757l0.008,0l8.442,-24.882l-8.791,0l1.755,-5.044l8.63,0c0.284,-0.836 0.662,-1.858 1.166,-3.09l0.153,-0.45l0.028,0.01Zm-53.311,-27.784l21.067,0c10.383,0 18.812,8.429 18.812,18.811l0,6.124c0,10.383 -8.429,18.812 -18.812,18.812l-13.092,0l0,27.594l-7.975,0l0,-71.341Zm7.975,36.444l13.092,0c6.352,0 11.509,-5.157 11.509,-11.509l0,-6.124c0,-6.352 -5.157,-11.509 -11.509,-11.509l-13.092,0l0,29.142Z" style="fill:#0f1422;"/></svg>