<?xml version="1.0" encoding="UTF-8" standalone="no"?><!DOCTYPE svg PUBLIC "-//W3C//DTD SVG 1.1//EN" "http://www.w3.org/Graphics/SVG/1.1/DTD/svg11.dtd"><svg width="100%" height="100%" viewBox="0 0 125 125" version="1.1" xmlns="http://www.w3.org/2000/svg" xmlns:xlink="http://www.w3.org/1999/xlink" xml:space="preserve" xmlns:serif="http://www.serif.com/" style="fill-rule:evenodd;clip-rule:evenodd;stroke-linejoin:round;stroke-miterlimit:2;"><path d="M62.5,0c-34.488,0 -62.5,28.012 -62.5,62.5c0,34.488 28.012,62.5 62.5,62.5c34.488,0 62.5,-28.012 62.5,-62.5c0,-34.488 -28.012,-62.5 -62.5,-62.5Zm0,5.435c31.547,0 57.065,25.518 57.065,57.065c0,31.547 -25.518,57.065 -57.065,57.065c-31.547,0 -57.065,-25.518 -57.065,-57.065c0,-31.547 25.518,-57.065 57.065,-57.065Zm33.967,21.739c-6.071,0 -30.103,5.382 -38.892,24.892c-1.094,-1.348 -5.499,-5.87 -16.835,-5.87c-9.161,0 -19.001,3.057 -19.001,12.228c0,12.228 19.001,12.908 19.001,20.38c0,8.153 -8.821,8.153 -8.821,8.153c0,0 -1.359,-10.87 -10.18,-10.87c-1.359,0 -5.435,0.679 -5.435,5.435c0,2.027 1.635,4.086 2.994,5.031c3.365,2.357 7.844,3.121 16.707,3.121c15.19,0 19.415,-6.656 19.84,-12.483c3.471,9.468 12.323,12.483 19.52,12.483c10.87,0 21.559,-8.853 25.115,-15.965c3.046,-6.114 7.462,-24.796 -10.859,-24.796c-9.511,0 -16.294,4.416 -16.294,4.416c0,-0.34 1.401,-8.152 9.553,-15.625c4.077,-3.737 8.121,-4.936 10.53,-5.244c4.076,-0.531 5.382,-1.263 6.39,-2.569c1.858,-2.399 0.064,-2.717 -3.333,-2.717Zm-53.01,21.739c0,0 -1.04,10.87 8.142,10.87c1.146,0 2.568,-0.446 3.81,-1.285c-0.69,2.898 -1.093,6.029 -1.093,9.437c0,0.669 0.053,1.274 0.085,1.91c-0.021,-0.063 -0.053,-0.159 -0.085,-0.212c-4.076,-6.793 -19.001,-6.793 -19.001,-13.926c0,-7.134 8.142,-6.794 8.142,-6.794Zm35.602,8.152c6.411,-0.063 9.065,6.677 7.314,15.625c-1.072,5.562 -4.883,14.129 -10.806,14.267c-3.248,0.063 -7.335,-5.648 -7.335,-13.269c0,-10.275 6.284,-16.58 10.827,-16.623Z" style="fill:#0f1422;fill-rule:nonzero;"/></svg>